<svg xmlns='http://www.w3.org/2000/svg' viewBox='0 0 100 100' color='#111827'>
    <defs>
        <linearGradient id='agentTileBg' x1='0' y1='0' x2='0' y2='1'>
            <stop offset='0%' stop-color='#FFFFFF'/>
            <stop offset='100%' stop-color='#F4F6FA'/>
        </linearGradient>
    </defs>
    <rect x='2' y='2' width='96' height='96' rx='22' fill='url(#agentTileBg)' stroke='#E2E8F0' stroke-width='2'/>
    <rect x='4' y='4' width='92' height='92' rx='20' fill='none' stroke='#111827' stroke-opacity='0.06' stroke-width='1'/>
    <g transform='translate(24 24) scale(2.16667) translate(-0 -0)'>
        <title>Cohere</title><path clip-rule="evenodd" d="M8.128 14.099c.592 0 1.77-.033 3.398-.703 1.897-.781 5.672-2.2 8.395-3.656 1.905-1.018 2.74-2.366 2.74-4.18A4.56 4.56 0 0018.1 1H7.549A6.55 6.55 0 001 7.55c0 3.617 2.745 6.549 7.128 6.549z" fill="#39594D" fill-rule="evenodd"></path><path clip-rule="evenodd" d="M9.912 18.61a4.387 4.387 0 012.705-4.052l3.323-1.38c3.361-1.394 7.06 1.076 7.06 4.715a5.104 5.104 0 01-5.105 5.104l-3.597-.001a4.386 4.386 0 01-4.386-4.387z" fill="#D18EE2" fill-rule="evenodd"></path><path d="M4.776 14.962A3.775 3.775 0 001 18.738v.489a3.776 3.776 0 007.551 0v-.49a3.775 3.775 0 00-3.775-3.775z" fill="#FF7759"></path>
    </g>
</svg>
