<svg width="14" height="14" viewBox="0 0 14 14" fill="none" xmlns="http://www.w3.org/2000/svg">
<path d="M7 1.22461C10.1894 1.22461 12.7754 3.81056 12.7754 7C12.7754 10.1894 10.1894 12.7754 7 12.7754C3.81056 12.7754 1.22461 10.1894 1.22461 7C1.22461 3.81056 3.81056 1.22461 7 1.22461ZM7 2.27539C4.39045 2.27539 2.27539 4.39045 2.27539 7C2.27539 9.60955 4.39045 11.7246 7 11.7246C9.60955 11.7246 11.7246 9.60955 11.7246 7C11.7246 4.39045 9.60955 2.27539 7 2.27539ZM8.02539 4.77246C8.31341 4.77246 8.54702 4.88426 8.71387 5.1084H8.71289C8.88187 5.32328 8.96187 5.6048 8.96191 5.94336V9.22852H7.97852V5.97363C7.97845 5.84075 7.94876 5.75247 7.90234 5.69531L7.90039 5.69238C7.86235 5.64173 7.80319 5.61035 7.70605 5.61035C7.63353 5.61047 7.57961 5.62781 7.53906 5.65918L7.50098 5.69727C7.45684 5.74831 7.42676 5.83324 7.42676 5.9668V9.22852H6.57324V5.97363C6.57318 5.83408 6.54177 5.74771 6.49805 5.69727L6.45996 5.65918C6.41933 5.6279 6.3656 5.61036 6.29297 5.61035C6.19595 5.61042 6.13761 5.64172 6.09961 5.69238L6.09766 5.69434C6.05676 5.74558 6.02832 5.83168 6.02832 5.9668V9.22852H5.03809V4.84766H5.97461V5.07227C5.98915 5.0531 6.00498 5.03444 6.02148 5.0166H6.02246L6.08105 4.95898C6.2238 4.83384 6.40055 4.77252 6.60449 4.77246C6.86415 4.77246 7.0709 4.8786 7.21191 5.08984H7.21094C7.23996 5.1307 7.26537 5.17445 7.28809 5.2207C7.32311 5.14535 7.36987 5.07702 7.42773 5.0166L7.4873 4.95898C7.6319 4.8332 7.81393 4.77258 8.02539 4.77246ZM8.85449 5.81934C8.85252 5.78877 8.85211 5.75875 8.84863 5.72949C8.85213 5.75876 8.8525 5.78876 8.85449 5.81934ZM7.69922 5.51074C7.61142 5.51198 7.53865 5.53478 7.48047 5.5791C7.5386 5.5348 7.61141 5.51197 7.69922 5.51074ZM8.82031 5.57031C8.81744 5.55815 8.81471 5.54608 8.81152 5.53418C8.81472 5.54607 8.81743 5.55815 8.82031 5.57031ZM6.29297 5.51074C6.2323 5.51077 6.17931 5.5208 6.13379 5.54102C6.1793 5.52087 6.23234 5.51078 6.29297 5.51074ZM6.37891 5.51855C6.38787 5.52025 6.39669 5.52315 6.40527 5.52539C6.39654 5.5231 6.38804 5.51929 6.37891 5.51758L6.29297 5.51074L6.37891 5.51855ZM7.70605 5.51074L7.79199 5.51855C7.80025 5.52013 7.80851 5.52236 7.81641 5.52441C7.78313 5.51571 7.74683 5.51076 7.70703 5.51074H7.70605ZM7.34961 5.3457C7.34025 5.37513 7.33248 5.40567 7.32617 5.4375C7.33259 5.40565 7.34005 5.37514 7.34961 5.3457ZM5.94629 5.35254C5.93905 5.37672 5.93397 5.40195 5.92871 5.42773C5.934 5.40192 5.93898 5.37674 5.94629 5.35254ZM8.7666 5.40039C8.76284 5.39115 8.75887 5.38209 8.75488 5.37305C8.75888 5.38209 8.76283 5.39115 8.7666 5.40039ZM6.00195 5.2207C5.98832 5.24637 5.97548 5.27272 5.96484 5.30078C5.97557 5.27272 5.98823 5.24636 6.00195 5.2207ZM7.40723 5.20996C7.40528 5.21336 7.40423 5.21726 7.40234 5.2207C7.40425 5.21727 7.40527 5.21335 7.40723 5.20996ZM6.03613 5.16016C6.03179 5.16658 6.02756 5.17309 6.02344 5.17969C6.02758 5.1731 6.03177 5.16657 6.03613 5.16016ZM7.50098 5.08496L7.45508 5.13867C7.46953 5.11991 7.48542 5.10213 7.50195 5.08496C7.51831 5.06735 7.53505 5.05058 7.55273 5.03516L7.50098 5.08496ZM8.60254 5.13086C8.5952 5.1221 8.58865 5.1128 8.58105 5.10449C8.58865 5.11281 8.5952 5.1221 8.60254 5.13086ZM7.0498 5.04785C7.04365 5.04155 7.0376 5.03526 7.03125 5.0293C7.0376 5.03525 7.04365 5.04156 7.0498 5.04785ZM8.48438 5.0166C8.476 5.01023 8.46759 5.004 8.45898 4.99805C8.4676 5.004 8.476 5.01022 8.48438 5.0166ZM7.01562 5.01562C7.00282 5.00442 6.99014 4.99329 6.97656 4.9834C6.99014 4.99328 7.00281 5.00443 7.01562 5.01562ZM8.42383 4.97559C8.4132 4.96917 8.40257 4.96284 8.3916 4.95703C8.40257 4.96284 8.4132 4.96917 8.42383 4.97559ZM6.96094 4.97266C6.94579 4.96239 6.93013 4.95304 6.91406 4.94434C6.93013 4.95302 6.94579 4.9624 6.96094 4.97266ZM8.35156 4.9375C8.34104 4.93279 8.33014 4.929 8.31934 4.9248C8.33015 4.929 8.34104 4.93279 8.35156 4.9375ZM6.89844 4.93652C6.88441 4.92949 6.87017 4.92287 6.85547 4.91699C6.87017 4.92286 6.88441 4.9295 6.89844 4.93652ZM8.2832 4.91113C8.26695 4.90583 8.25027 4.90167 8.2334 4.89746C8.25028 4.90166 8.26694 4.90583 8.2832 4.91113ZM6.82812 4.90625C6.82307 4.90452 6.81763 4.90394 6.8125 4.90234C6.81763 4.90394 6.82307 4.90452 6.82812 4.90625ZM7.87012 4.88574C7.8688 4.88598 7.86753 4.88647 7.86621 4.88672C7.91647 4.87733 7.96945 4.8721 8.02539 4.87207L7.87012 4.88574Z" fill="#5F36B2"/>
</svg>
